<svg xmlns="http://www.w3.org/2000/svg" xmlns:xlink="http://www.w3.org/1999/xlink" version="1.1" width="810" height="1440" viewBox="0 0 810 1440">
<defs>
<clipPath id="clip_0">
<path transform="matrix(0,-.24,.24,0,0,1440)" d="M0 0H6000V3375H0Z" fill-rule="evenodd"/>
</clipPath>
<clipPath id="clip_1">
<path transform="matrix(0,-.24,.24,0,0,1440)" d="M0 0H6000V3375H0Z" fill-rule="evenodd"/>
</clipPath>
<clipPath id="clip_2">
<path transform="matrix(0,-.24,.24,0,0,1440)" d="M0 0H6000V3406.25H0Z"/>
</clipPath>
<clipPath id="clip_3">
<path transform="matrix(0,-.24,.24,0,0,1440)" d="M0 0H6000V3375H0Z"/>
</clipPath>
<clipPath id="clip_4">
<path transform="matrix(0,-.24,.24,0,0,1440)" d="M0 0H6000V3375H0Z"/>
</clipPath>
<clipPath id="clip_5">
<path transform="matrix(0,-.24,.24,0,0,1440)" d="M0 771.7345H506.25V3453.2774H0Z"/>
</clipPath>
<clipPath id="clip_6">
<path transform="matrix(0,-.24,.24,0,0,1440)" d="M253.125 771.7345H506.25L253.125 3451.6217H0L253.125 771.7345Z"/>
</clipPath>
<clipPath id="clip_7">
<path transform="matrix(0,-.24,.24,0,0,1440)" d="M0 0H6000V3406.25H0Z"/>
</clipPath>
<clipPath id="clip_8">
<path transform="matrix(0,-.24,.24,0,0,1440)" d="M0 0H6000V3375H0Z"/>
</clipPath>
<clipPath id="clip_9">
<path transform="matrix(0,-.24,.24,0,0,1440)" d="M0 0H6000V3375H0Z"/>
</clipPath>
<clipPath id="clip_10">
<path transform="matrix(0,-.24,.24,0,0,1440)" d="M498.729 771.7345H1004.979V3453.2774H498.729Z"/>
</clipPath>
<clipPath id="clip_11">
<path transform="matrix(0,-.24,.24,0,0,1440)" d="M751.854 771.7345H1004.979L751.854 3451.6217H498.729L751.854 771.7345Z"/>
</clipPath>
<clipPath id="clip_12">
<path transform="matrix(0,-.24,.24,0,0,1440)" d="M0 0H6000V3406.25H0Z"/>
</clipPath>
<clipPath id="clip_13">
<path transform="matrix(0,-.24,.24,0,0,1440)" d="M0 0H6000V3375H0Z"/>
</clipPath>
<clipPath id="clip_14">
<path transform="matrix(0,-.24,.24,0,0,1440)" d="M0 0H6000V3375H0Z"/>
</clipPath>
<clipPath id="clip_15">
<path transform="matrix(0,-.24,.24,0,0,1440)" d="M997.458 771.7345H1503.708V3453.2774H997.458Z"/>
</clipPath>
<clipPath id="clip_16">
<path transform="matrix(0,-.24,.24,0,0,1440)" d="M1250.583 771.7345H1503.708L1250.583 3451.6217H997.458L1250.583 771.7345Z"/>
</clipPath>
<clipPath id="clip_17">
<path transform="matrix(0,-.24,.24,0,0,1440)" d="M0 0H6000V3406.25H0Z"/>
</clipPath>
<clipPath id="clip_18">
<path transform="matrix(0,-.24,.24,0,0,1440)" d="M0 0H6000V3375H0Z"/>
</clipPath>
<clipPath id="clip_19">
<path transform="matrix(0,-.24,.24,0,0,1440)" d="M0 0H6000V3375H0Z"/>
</clipPath>
<clipPath id="clip_20">
<path transform="matrix(0,-.24,.24,0,0,1440)" d="M1496.187 771.7345H2002.437V3453.2774H1496.187Z"/>
</clipPath>
<clipPath id="clip_21">
<path transform="matrix(0,-.24,.24,0,0,1440)" d="M1749.312 771.7345H2002.437L1749.312 3451.6217H1496.187L1749.312 771.7345Z"/>
</clipPath>
<clipPath id="clip_22">
<path transform="matrix(0,-.24,.24,0,0,1440)" d="M0 0H6000V3406.25H0Z"/>
</clipPath>
<clipPath id="clip_23">
<path transform="matrix(0,-.24,.24,0,0,1440)" d="M0 0H6000V3375H0Z"/>
</clipPath>
<clipPath id="clip_24">
<path transform="matrix(0,-.24,.24,0,0,1440)" d="M0 0H6000V3375H0Z"/>
</clipPath>
<clipPath id="clip_25">
<path transform="matrix(0,-.24,.24,0,0,1440)" d="M1994.916 771.7345H2501.166V3453.2774H1994.916Z"/>
</clipPath>
<clipPath id="clip_26">
<path transform="matrix(0,-.24,.24,0,0,1440)" d="M2248.041 771.7345H2501.166L2248.041 3451.6217H1994.916L2248.041 771.7345Z"/>
</clipPath>
<clipPath id="clip_27">
<path transform="matrix(0,-.24,.24,0,0,1440)" d="M0 0H6000V3406.25H0Z"/>
</clipPath>
<clipPath id="clip_28">
<path transform="matrix(0,-.24,.24,0,0,1440)" d="M0 0H6000V3375H0Z"/>
</clipPath>
<clipPath id="clip_29">
<path transform="matrix(0,-.24,.24,0,0,1440)" d="M0 0H6000V3375H0Z"/>
</clipPath>
<clipPath id="clip_30">
<path transform="matrix(0,-.24,.24,0,0,1440)" d="M2493.645 771.7345H2999.895V3453.2774H2493.645Z"/>
</clipPath>
<clipPath id="clip_31">
<path transform="matrix(0,-.24,.24,0,0,1440)" d="M2746.77 771.7345H2999.895L2746.77 3451.6217H2493.645L2746.77 771.7345Z"/>
</clipPath>
<clipPath id="clip_32">
<path transform="matrix(0,-.24,.24,0,0,1440)" d="M0 0H6000V3406.25H0Z"/>
</clipPath>
<clipPath id="clip_33">
<path transform="matrix(0,-.24,.24,0,0,1440)" d="M0 0H6000V3375H0Z"/>
</clipPath>
<clipPath id="clip_34">
<path transform="matrix(0,-.24,.24,0,0,1440)" d="M0 0H6000V3375H0Z"/>
</clipPath>
<clipPath id="clip_35">
<path transform="matrix(0,-.24,.24,0,0,1440)" d="M2992.374 771.7345H3498.624V3453.2774H2992.374Z"/>
</clipPath>
<clipPath id="clip_36">
<path transform="matrix(0,-.24,.24,0,0,1440)" d="M3245.499 771.7345H3498.624L3245.499 3451.6217H2992.374L3245.499 771.7345Z"/>
</clipPath>
<clipPath id="clip_37">
<path transform="matrix(0,-.24,.24,0,0,1440)" d="M0 0H6000V3406.25H0Z"/>
</clipPath>
<clipPath id="clip_38">
<path transform="matrix(0,-.24,.24,0,0,1440)" d="M0 0H6000V3375H0Z"/>
</clipPath>
<clipPath id="clip_39">
<path transform="matrix(0,-.24,.24,0,0,1440)" d="M0 0H6000V3375H0Z"/>
</clipPath>
<clipPath id="clip_40">
<path transform="matrix(0,-.24,.24,0,0,1440)" d="M3491.103 771.7345H3997.353V3453.2774H3491.103Z"/>
</clipPath>
<clipPath id="clip_41">
<path transform="matrix(0,-.24,.24,0,0,1440)" d="M3744.228 771.7345H3997.353L3744.228 3451.6217H3491.103L3744.228 771.7345Z"/>
</clipPath>
<clipPath id="clip_42">
<path transform="matrix(0,-.24,.24,0,0,1440)" d="M0 0H6000V3406.25H0Z"/>
</clipPath>
<clipPath id="clip_43">
<path transform="matrix(0,-.24,.24,0,0,1440)" d="M0 0H6000V3375H0Z"/>
</clipPath>
<clipPath id="clip_44">
<path transform="matrix(0,-.24,.24,0,0,1440)" d="M0 0H6000V3375H0Z"/>
</clipPath>
<clipPath id="clip_45">
<path transform="matrix(0,-.24,.24,0,0,1440)" d="M3989.832 771.7345H4496.082V3453.2774H3989.832Z"/>
</clipPath>
<clipPath id="clip_46">
<path transform="matrix(0,-.24,.24,0,0,1440)" d="M4242.957 771.7345H4496.082L4242.957 3451.6217H3989.832L4242.957 771.7345Z"/>
</clipPath>
<clipPath id="clip_47">
<path transform="matrix(0,-.24,.24,0,0,1440)" d="M0 0H6000V3406.25H0Z"/>
</clipPath>
<clipPath id="clip_48">
<path transform="matrix(0,-.24,.24,0,0,1440)" d="M0 0H6000V3375H0Z"/>
</clipPath>
<clipPath id="clip_49">
<path transform="matrix(0,-.24,.24,0,0,1440)" d="M0 0H6000V3375H0Z"/>
</clipPath>
<clipPath id="clip_50">
<path transform="matrix(0,-.24,.24,0,0,1440)" d="M4488.561 771.7345H4994.811V3453.2774H4488.561Z"/>
</clipPath>
<clipPath id="clip_51">
<path transform="matrix(0,-.24,.24,0,0,1440)" d="M4741.686 771.7345H4994.811L4741.686 3451.6217H4488.561L4741.686 771.7345Z"/>
</clipPath>
<clipPath id="clip_52">
<path transform="matrix(0,-.24,.24,0,0,1440)" d="M0 0H6000V3406.25H0Z"/>
</clipPath>
<clipPath id="clip_53">
<path transform="matrix(0,-.24,.24,0,0,1440)" d="M0 0H6000V3375H0Z"/>
</clipPath>
<clipPath id="clip_54">
<path transform="matrix(0,-.24,.24,0,0,1440)" d="M0 0H6000V3375H0Z"/>
</clipPath>
<clipPath id="clip_55">
<path transform="matrix(0,-.24,.24,0,0,1440)" d="M4987.29 771.7345H5493.54V3453.2774H4987.29Z"/>
</clipPath>
<clipPath id="clip_56">
<path transform="matrix(0,-.24,.24,0,0,1440)" d="M5240.415 771.7345H5493.54L5240.415 3451.6217H4987.29L5240.415 771.7345Z"/>
</clipPath>
<clipPath id="clip_57">
<path transform="matrix(0,-.24,.24,0,0,1440)" d="M0 0H6000V3406.25H0Z"/>
</clipPath>
<clipPath id="clip_58">
<path transform="matrix(0,-.24,.24,0,0,1440)" d="M0 0H6000V3375H0Z"/>
</clipPath>
<clipPath id="clip_59">
<path transform="matrix(0,-.24,.24,0,0,1440)" d="M0 0H6000V3375H0Z"/>
</clipPath>
<clipPath id="clip_60">
<path transform="matrix(0,-.24,.24,0,0,1440)" d="M5486.019 771.7345H5992.269V3453.2774H5486.019Z"/>
</clipPath>
<clipPath id="clip_61">
<path transform="matrix(0,-.24,.24,0,0,1440)" d="M5739.144 771.7345H5992.269L5739.144 3451.6217H5486.019L5739.144 771.7345Z"/>
</clipPath>
</defs>
<g clip-path="url(#clip_0)">
<path transform="matrix(0,-.75,.75,0,0,1440)" d="M0 0H1920V1080H0Z" fill="#ffffff"/>
</g>
<g clip-path="url(#clip_1)">
<path transform="matrix(0,-.75,.75,0,0,1440)" d="M0 0H1920V1080H0Z" fill="#3b5704"/>
</g>
<g clip-path="url(#clip_2)">
<g clip-path="url(#clip_3)">
<g clip-path="url(#clip_4)">
<g clip-path="url(#clip_5)">
<g clip-path="url(#clip_6)">
<path transform="matrix(0,-.47460938,.47460938,0,185.21628,1440)" d="M0 0H256V1355H0Z" fill="#edffcc"/>
</g>
</g>
</g>
</g>
</g>
<g clip-path="url(#clip_7)">
<g clip-path="url(#clip_8)">
<g clip-path="url(#clip_9)">
<g clip-path="url(#clip_10)">
<g clip-path="url(#clip_11)">
<path transform="matrix(0,-.47460938,.47460938,0,185.21628,1320.305)" d="M0 0H256V1355H0Z" fill="#edffcc"/>
</g>
</g>
</g>
</g>
</g>
<g clip-path="url(#clip_12)">
<g clip-path="url(#clip_13)">
<g clip-path="url(#clip_14)">
<g clip-path="url(#clip_15)">
<g clip-path="url(#clip_16)">
<path transform="matrix(0,-.47460938,.47460938,0,185.21628,1200.6101)" d="M0 0H256V1355H0Z" fill="#edffcc"/>
</g>
</g>
</g>
</g>
</g>
<g clip-path="url(#clip_17)">
<g clip-path="url(#clip_18)">
<g clip-path="url(#clip_19)">
<g clip-path="url(#clip_20)">
<g clip-path="url(#clip_21)">
<path transform="matrix(0,-.47460938,.47460938,0,185.21628,1080.9152)" d="M0 0H256V1355H0Z" fill="#edffcc"/>
</g>
</g>
</g>
</g>
</g>
<g clip-path="url(#clip_22)">
<g clip-path="url(#clip_23)">
<g clip-path="url(#clip_24)">
<g clip-path="url(#clip_25)">
<g clip-path="url(#clip_26)">
<path transform="matrix(0,-.47460938,.47460938,0,185.21628,961.22018)" d="M0 0H256V1355H0Z" fill="#edffcc"/>
</g>
</g>
</g>
</g>
</g>
<g clip-path="url(#clip_27)">
<g clip-path="url(#clip_28)">
<g clip-path="url(#clip_29)">
<g clip-path="url(#clip_30)">
<g clip-path="url(#clip_31)">
<path transform="matrix(0,-.47460938,.47460938,0,185.21628,841.5252)" d="M0 0H256V1355H0Z" fill="#edffcc"/>
</g>
</g>
</g>
</g>
</g>
<g clip-path="url(#clip_32)">
<g clip-path="url(#clip_33)">
<g clip-path="url(#clip_34)">
<g clip-path="url(#clip_35)">
<g clip-path="url(#clip_36)">
<path transform="matrix(0,-.47460938,.47460938,0,185.21628,721.83029)" d="M0 0H256V1355H0Z" fill="#edffcc"/>
</g>
</g>
</g>
</g>
</g>
<g clip-path="url(#clip_37)">
<g clip-path="url(#clip_38)">
<g clip-path="url(#clip_39)">
<g clip-path="url(#clip_40)">
<g clip-path="url(#clip_41)">
<path transform="matrix(0,-.47460938,.47460938,0,185.21628,602.1353)" d="M0 0H256V1355H0Z" fill="#edffcc"/>
</g>
</g>
</g>
</g>
</g>
<g clip-path="url(#clip_42)">
<g clip-path="url(#clip_43)">
<g clip-path="url(#clip_44)">
<g clip-path="url(#clip_45)">
<g clip-path="url(#clip_46)">
<path transform="matrix(0,-.47460938,.47460938,0,185.21628,482.4403)" d="M0 0H256V1355H0Z" fill="#edffcc"/>
</g>
</g>
</g>
</g>
</g>
<g clip-path="url(#clip_47)">
<g clip-path="url(#clip_48)">
<g clip-path="url(#clip_49)">
<g clip-path="url(#clip_50)">
<g clip-path="url(#clip_51)">
<path transform="matrix(0,-.47460938,.47460938,0,185.21628,362.74537)" d="M0 0H256V1355H0Z" fill="#edffcc"/>
</g>
</g>
</g>
</g>
</g>
<g clip-path="url(#clip_52)">
<g clip-path="url(#clip_53)">
<g clip-path="url(#clip_54)">
<g clip-path="url(#clip_55)">
<g clip-path="url(#clip_56)">
<path transform="matrix(0,-.47460938,.47460938,0,185.21628,243.05042)" d="M0 0H256V1355H0Z" fill="#edffcc"/>
</g>
</g>
</g>
</g>
</g>
<g clip-path="url(#clip_57)">
<g clip-path="url(#clip_58)">
<g clip-path="url(#clip_59)">
<g clip-path="url(#clip_60)">
<g clip-path="url(#clip_61)">
<path transform="matrix(0,-.47460938,.47460938,0,185.21628,123.35547)" d="M0 0H256V1355H0Z" fill="#edffcc"/>
</g>
</g>
</g>
</g>
</g>
</svg>
